<?xml version="1.0" standalone="no"?>
<!DOCTYPE svg PUBLIC "-//W3C//DTD SVG 20010904//EN"
 "http://www.w3.org/TR/2001/REC-SVG-20010904/DTD/svg10.dtd">
<svg version="1.0" xmlns="http://www.w3.org/2000/svg"
 width="512.000000pt" height="512.000000pt" viewBox="0 0 512.000000 512.000000"
 preserveAspectRatio="xMidYMid meet">

<g transform="translate(0.000000,512.000000) scale(0.100000,-0.100000)"
fill="#000000" stroke="none">
<path d="M1891 4946 c-8 -10 -11 -218 -9 -785 l3 -771 33 -32 32 -33 530 0
530 0 32 33 33 32 0 777 c0 728 -1 776 -17 787 -13 8 -23 8 -35 0 -17 -10 -18
-51 -21 -583 l-2 -571 -520 0 -520 0 0 568 c0 428 -3 571 -12 580 -16 16 -43
15 -57 -2z m1109 -1374 c0 -102 -4 -152 -12 -160 -17 -17 -999 -17 -1016 0 -8
8 -12 58 -12 160 l0 148 520 0 520 0 0 -148z"/>
<path d="M3972 4748 c-7 -7 -12 -40 -12 -80 l0 -67 -71 -3 c-55 -2 -74 -7 -83
-20 -8 -13 -8 -23 0 -35 9 -14 27 -19 82 -21 l71 -3 3 -71 c2 -55 7 -73 21
-82 12 -8 22 -8 35 0 13 9 18 27 20 82 l3 71 71 3 c55 2 73 7 82 21 8 12 8 22
0 35 -9 13 -28 18 -83 20 l-71 3 0 67 c0 69 -10 92 -40 92 -9 0 -21 -5 -28
-12z"/>
<path d="M4532 4228 c-7 -7 -12 -40 -12 -80 l0 -67 -71 -3 c-55 -2 -74 -7 -83
-20 -8 -13 -8 -23 0 -35 9 -14 27 -19 82 -21 l71 -3 3 -71 c2 -55 7 -73 21
-82 12 -8 22 -8 35 0 13 9 18 27 20 82 l3 71 71 3 c55 2 73 7 82 21 8 12 8 22
0 35 -9 13 -28 18 -83 20 l-71 3 0 67 c0 69 -10 92 -40 92 -9 0 -21 -5 -28
-12z"/>
<path d="M1972 3228 c-9 -9 -12 -164 -12 -636 0 -693 -2 -666 67 -719 40 -31
115 -41 153 -21 23 13 27 12 51 -22 45 -62 130 -87 189 -57 23 12 27 10 51
-23 74 -102 224 -86 275 29 16 38 17 38 52 29 48 -13 97 -4 137 26 62 48 65
65 65 359 l0 266 31 -11 c70 -24 159 15 193 87 15 31 17 63 14 223 -3 159 -6
192 -22 222 -23 45 -236 260 -256 260 -20 0 -40 -19 -40 -39 0 -8 49 -65 109
-126 61 -61 115 -123 120 -139 6 -15 11 -102 11 -197 0 -167 0 -170 -25 -194
-46 -47 -120 -23 -134 44 -8 42 -33 61 -58 45 -16 -10 -18 -42 -23 -363 l-5
-353 -24 -19 c-30 -24 -72 -24 -102 0 -24 19 -24 22 -29 252 -4 207 -7 233
-23 243 -12 8 -22 8 -35 0 -15 -10 -17 -39 -22 -303 l-5 -293 -24 -19 c-30
-24 -72 -24 -102 0 l-24 19 -5 293 c-5 264 -7 293 -22 303 -13 8 -23 8 -35 0
-16 -10 -19 -37 -23 -263 -5 -251 -5 -253 -29 -272 -30 -24 -72 -24 -102 0
-24 19 -24 21 -29 272 -4 226 -7 253 -22 263 -13 8 -23 8 -35 0 -16 -10 -19
-35 -23 -223 -5 -209 -5 -213 -29 -232 -32 -26 -77 -24 -106 6 l-25 24 0 624
c0 645 0 647 -40 647 -9 0 -21 -5 -28 -12z"/>
<path d="M12 2988 c-6 -6 -12 -20 -12 -29 0 -32 25 -40 125 -37 80 2 100 6
109 21 8 12 8 22 0 35 -9 14 -29 18 -110 20 -69 2 -103 -1 -112 -10z"/>
<path d="M332 2988 c-16 -16 -15 -43 2 -57 9 -8 157 -10 531 -9 481 3 519 4
529 21 8 12 8 22 0 35 -10 16 -48 17 -531 20 -395 2 -522 -1 -531 -10z"/>
<path d="M3732 2988 c-16 -16 -15 -43 2 -57 9 -8 157 -10 531 -9 481 3 519 4
529 21 8 12 8 22 0 35 -10 16 -48 17 -531 20 -395 2 -522 -1 -531 -10z"/>
<path d="M4892 2988 c-6 -6 -12 -20 -12 -29 0 -32 25 -40 125 -37 80 2 100 6
109 21 8 12 8 22 0 35 -9 14 -29 18 -110 20 -69 2 -103 -1 -112 -10z"/>
<path d="M1745 2801 c-52 -24 -269 -245 -292 -297 -12 -29 -18 -76 -21 -186
-5 -166 -1 -194 29 -203 43 -14 49 7 49 169 0 126 4 158 19 191 11 23 68 88
133 153 108 105 117 112 155 112 45 0 68 19 58 48 -11 36 -69 41 -130 13z"/>
<path d="M3302 2498 c-7 -7 -12 -19 -12 -28 0 -18 339 -360 357 -360 15 0 43
28 43 43 0 17 -342 357 -360 357 -9 0 -21 -5 -28 -12z"/>
<path d="M1260 2093 c-27 -9 -1100 -1087 -1100 -1105 0 -16 27 -38 47 -38 4 0
189 181 410 402 l403 403 367 -368 368 -367 -403 -403 c-221 -221 -402 -406
-402 -410 0 -20 22 -47 38 -47 9 0 261 244 559 543 571 570 566 564 549 634
-8 31 -690 724 -738 749 -27 14 -70 17 -98 7z m408 -421 c227 -224 352 -354
352 -367 0 -12 -42 -62 -102 -122 l-103 -103 -367 367 -368 368 102 102 c57
57 110 103 118 103 9 0 174 -156 368 -348z"/>
<path d="M3755 2082 c-16 -11 -186 -177 -377 -368 -231 -232 -349 -358 -354
-377 -17 -70 -22 -64 549 -634 298 -299 547 -543 554 -543 15 0 43 28 43 43 0
6 -181 193 -402 414 l-403 403 368 367 367 368 403 -403 c221 -221 408 -402
414 -402 15 0 43 28 43 43 0 7 -245 257 -544 556 -532 532 -544 543 -587 548
-32 3 -52 -1 -74 -15z"/>
<path d="M2208 1583 c-54 -54 -98 -104 -98 -110 0 -15 28 -43 42 -43 6 0 55
44 110 97 80 79 98 102 96 123 -2 18 -10 26 -28 28 -20 2 -44 -17 -122 -95z"/>
<path d="M2506 1594 c-22 -22 -21 -29 20 -73 63 -71 107 -85 276 -89 166 -5
194 -1 203 29 14 43 -7 49 -169 49 -168 0 -205 10 -260 69 -33 35 -48 38 -70
15z"/>
</g>
</svg>
